# Blender v2.93.6 OBJ File: 'StraightBelt.blend'
# www.blender.org
mtllib StraightBelt.mtl
o Cube_Cube.001
v -19.999992 0.000000 20.000000
v -19.999992 8.000000 20.000000
v -19.999992 0.000000 -19.999998
v -19.999992 8.000000 -19.999998
v -14.999992 0.000000 20.000000
v -14.999992 8.000000 20.000000
v -14.999992 0.000000 -19.999998
v -14.999992 8.000000 -19.999998
v 15.000004 0.000000 20.000000
v 15.000004 8.000000 20.000000
v 15.000004 0.000000 -19.999998
v 15.000004 8.000000 -19.999998
v 20.000004 0.000000 20.000000
v 20.000004 8.000000 20.000000
v 20.000004 0.000000 -19.999998
v 20.000004 8.000000 -19.999998
v -18.749992 10.000000 19.999998
v -18.749992 10.000000 -19.999998
v -16.249992 10.000000 -19.999998
v -16.249992 10.000000 19.999998
v 16.250004 10.000000 19.999998
v 16.250004 10.000000 -19.999998
v 18.750002 10.000000 -19.999998
v 18.750002 10.000000 19.999998
v -14.999992 7.000000 -19.999998
v -14.999992 5.000000 -19.999998
v -14.999992 5.000000 19.999998
v -14.999992 7.000000 19.999998
v 15.000004 5.000000 -19.999998
v 15.000004 5.000000 19.999998
v 15.000004 7.000000 19.999998
v 15.000004 7.000000 -19.999998
vt 0.175686 0.640806
vt 0.175686 0.796694
vt 0.175686 0.640806
vt 0.175686 0.796694
vt 0.195172 0.796694
vt 0.195172 0.640806
vt 0.195172 0.640806
vt 0.177457 0.796694
vt 0.196943 0.796694
vt 0.177457 0.796694
vt 0.196943 0.796694
vt 0.196943 0.640806
vt 0.196943 0.640806
vt 0.177457 0.640806
vt 0.192072 0.796694
vt 0.192072 0.640806
vt 0.180557 0.640806
vt 0.195172 0.796694
vt 0.195172 0.640806
vt 0.158126 0.596251
vt 0.158126 0.596251
vt 0.158126 0.596251
vt 0.190300 0.640806
vt 0.180557 0.796694
vt 0.195172 0.796694
vt 0.190300 0.796694
vt 0.182329 0.796694
vt 0.182329 0.640806
vt 0.177457 0.640806
vt 0.500000 0.000000
vt 1.000000 1.000000
vt 0.500000 1.000000
vt 0.500000 0.000000
vt 1.000000 0.000000
vt 0.177457 0.640806
vt 0.177457 0.640806
vt 0.177457 0.796694
vt 0.195172 0.796694
vt 0.158126 0.841249
vt 0.158126 0.841249
vt 0.158126 0.841249
vt 0.341874 0.841249
vt 0.341874 0.841249
vt 0.341874 0.841249
vt 0.341874 0.596251
vt 0.341874 0.596251
vt 0.341874 0.596251
vt 0.500000 1.000000
vt 1.000000 0.000000
vt 1.000000 1.000000
vt 0.158126 0.596251
vt 0.177457 0.796694
vt 0.195172 0.640806
vt 0.158126 0.841249
vt 0.341874 0.841249
vt 0.341874 0.596251
vn -1.0000 0.0000 0.0000
vn 0.0000 0.0000 -1.0000
vn 0.0000 0.0000 1.0000
vn 0.0000 -1.0000 0.0000
vn 1.0000 0.0000 0.0000
vn 0.8480 0.5300 0.0000
vn 0.0000 1.0000 0.0000
vn -0.8480 0.5300 0.0000
usemtl Conveyor
s off
f 2/1/1 3/2/1 1/3/1
f 4/4/2 7/5/2 3/2/2
f 6/6/3 1/3/3 5/7/3
f 7/5/4 1/3/4 3/2/4
f 12/8/2 15/9/2 11/10/2
f 16/11/5 13/12/5 15/9/5
f 14/13/3 9/14/3 13/12/3
f 15/9/4 9/14/4 11/10/4
f 14/13/6 23/15/6 24/16/6
f 6/6/3 17/17/3 2/1/3
f 5/7/5 26/18/5 27/19/5
f 6/20/5 27/21/5 28/22/5
f 20/23/7 18/24/7 17/17/7
f 8/25/2 18/24/2 19/26/2
f 6/6/6 19/26/6 20/23/6
f 4/4/8 17/17/8 18/24/8
f 24/16/7 22/27/7 21/28/7
f 12/8/8 21/28/8 22/27/8
f 10/29/3 24/16/3 21/28/3
f 12/8/2 23/15/2 16/11/2
f 28/30/7 32/31/7 25/32/7
f 27/33/3 31/34/3 28/30/3
f 12/8/1 31/35/1 10/29/1
f 11/10/1 30/36/1 29/37/1
f 6/6/5 25/38/5 8/25/5
f 8/39/3 26/40/3 7/41/3
f 12/42/5 29/43/5 32/44/5
f 10/45/3 30/46/3 9/47/3
f 26/48/4 30/49/4 27/33/4
f 25/32/2 29/50/2 26/48/2
f 2/1/1 4/4/1 3/2/1
f 4/4/2 8/25/2 7/5/2
f 6/6/3 2/1/3 1/3/3
f 7/5/4 5/7/4 1/3/4
f 12/8/2 16/11/2 15/9/2
f 16/11/5 14/13/5 13/12/5
f 14/13/3 10/29/3 9/14/3
f 15/9/4 13/12/4 9/14/4
f 14/13/6 16/11/6 23/15/6
f 6/6/3 20/23/3 17/17/3
f 5/7/5 7/5/5 26/18/5
f 6/20/3 5/51/3 27/21/3
f 20/23/7 19/26/7 18/24/7
f 8/25/2 4/4/2 18/24/2
f 6/6/6 8/25/6 19/26/6
f 4/4/8 2/1/8 17/17/8
f 24/16/7 23/15/7 22/27/7
f 12/8/8 10/29/8 21/28/8
f 10/29/3 14/13/3 24/16/3
f 12/8/2 22/27/2 23/15/2
f 28/30/7 31/34/7 32/31/7
f 27/33/3 30/49/3 31/34/3
f 12/8/1 32/52/1 31/35/1
f 11/10/1 9/14/1 30/36/1
f 6/6/5 28/53/5 25/38/5
f 8/39/1 25/54/1 26/40/1
f 12/42/3 11/55/3 29/43/3
f 10/45/1 31/56/1 30/46/1
f 26/48/4 29/50/4 30/49/4
f 25/32/2 32/31/2 29/50/2
