# Blender v2.92.0 OBJ File: 'Table.blend'
# www.blender.org
mtllib Table.mtl
o Cube
v 2.000000 1.400000 -1.250000
v 2.000000 1.200000 -1.250000
v 2.000000 1.400000 1.250000
v 2.000000 1.200000 1.250000
v -2.000000 1.400000 -1.250000
v -2.000000 1.200000 -1.250000
v -2.000000 1.400000 1.250000
v -2.000000 1.200000 1.250000
v -1.800000 1.200000 -0.650000
v -1.400000 1.200000 -0.650000
v -1.400000 1.200000 -1.050000
v -1.800000 1.200000 -1.050000
v 1.400000 1.200000 -1.050000
v 1.800000 1.200000 -1.050000
v 1.800000 1.200000 -0.650000
v 1.400000 1.200000 -0.650000
v -1.800000 1.200000 0.650000
v -1.400000 1.200000 0.650000
v -1.400000 1.200000 1.050000
v -1.800000 1.200000 1.050000
v 1.400000 1.200000 0.650000
v 1.800000 1.200000 0.650000
v 1.800000 1.200000 1.050000
v 1.400000 1.200000 1.050000
v -1.800000 -0.100000 -0.650000
v -1.400000 -0.100000 -0.650000
v -1.400000 -0.100000 -1.050000
v -1.800000 -0.100000 -1.050000
v 1.400000 -0.100000 -1.050000
v 1.800000 -0.100000 -1.050000
v 1.800000 -0.100000 -0.650000
v 1.400000 -0.100000 -0.650000
v -1.800000 -0.100000 0.650000
v -1.400000 -0.100000 0.650000
v -1.400000 -0.100000 1.050000
v -1.800000 -0.100000 1.050000
v 1.400000 -0.100000 0.650000
v 1.800000 -0.100000 0.650000
v 1.800000 -0.100000 1.050000
v 1.400000 -0.100000 1.050000
vt 0.000000 1.000000
vt 1.000000 0.000000
vt 1.000000 1.000000
vt 0.000000 0.000000
vt 1.000000 0.000000
vt 0.000000 0.000000
vt 0.000000 1.000000
vt 1.000000 1.000000
vt 0.950000 0.920000
vt 0.850000 0.920000
vt 0.850000 0.920000
vt 0.950000 0.760000
vt 0.950000 0.240000
vt 0.150000 0.080000
vt 0.850000 0.080000
vt 0.050000 0.240000
vt 0.050000 0.080000
vt 0.050000 0.080000
vt 0.050000 0.920000
vt 0.050000 0.760000
vt 0.050000 0.760000
vt 0.150000 0.080000
vt 0.150000 0.920000
vt 0.050000 0.920000
vt 0.850000 0.240000
vt 0.950000 0.080000
vt 0.850000 0.080000
vt 0.150000 0.240000
vt 0.950000 0.760000
vt 0.850000 0.760000
vt 0.850000 0.240000
vt 0.950000 0.920000
vt 0.950000 0.080000
vt 0.950000 0.240000
vt 0.850000 0.760000
vt 0.150000 0.760000
vt 0.150000 0.760000
vt 0.150000 0.240000
vt 0.050000 0.240000
vt 0.150000 0.920000
vn 0.0000 1.0000 0.0000
vn 0.0000 0.0000 1.0000
vn -1.0000 0.0000 0.0000
vn 0.0000 -1.0000 0.0000
vn 1.0000 0.0000 0.0000
vn 0.0000 0.0000 -1.0000
usemtl Wood
s off
f 5/1/1 3/2/1 1/3/1
f 3/2/2 8/4/2 4/5/2
f 7/6/3 6/7/3 8/4/3
f 2/8/4 14/9/4 13/10/4
f 1/3/5 4/5/5 2/8/5
f 5/1/6 2/8/6 6/7/6
f 14/9/6 29/11/6 13/10/6
f 15/12/4 2/8/4 22/13/4
f 8/4/4 19/14/4 24/15/4
f 17/16/3 36/17/3 20/18/3
f 12/19/3 25/20/3 9/21/3
f 20/18/2 35/22/2 19/14/2
f 27/23/4 25/20/4 28/24/4
f 37/25/4 39/26/4 40/27/4
f 36/17/4 34/28/4 35/22/4
f 29/11/4 31/29/4 32/30/4
f 22/13/6 37/25/6 21/31/6
f 15/12/5 30/32/5 14/9/5
f 23/33/5 38/34/5 22/13/5
f 16/35/2 31/29/2 15/12/2
f 24/15/2 39/26/2 23/33/2
f 13/10/3 32/30/3 16/35/3
f 9/21/2 26/36/2 10/37/2
f 21/31/3 40/27/3 24/15/3
f 18/38/6 33/39/6 17/16/6
f 10/37/5 27/23/5 11/40/5
f 19/14/5 34/28/5 18/38/5
f 11/40/6 28/24/6 12/19/6
f 5/1/1 7/6/1 3/2/1
f 3/2/2 7/6/2 8/4/2
f 7/6/3 5/1/3 6/7/3
f 12/19/4 6/7/4 11/40/4
f 6/7/4 2/8/4 11/40/4
f 2/8/4 15/12/4 14/9/4
f 13/10/4 11/40/4 2/8/4
f 1/3/5 3/2/5 4/5/5
f 5/1/6 1/3/6 2/8/6
f 14/9/6 30/32/6 29/11/6
f 10/37/4 11/40/4 13/10/4
f 10/37/4 13/10/4 16/35/4
f 6/7/4 12/19/4 9/21/4
f 10/37/4 16/35/4 21/31/4
f 16/35/4 15/12/4 22/13/4
f 8/4/4 6/7/4 17/16/4
f 6/7/4 9/21/4 17/16/4
f 9/21/4 10/37/4 18/38/4
f 16/35/4 22/13/4 21/31/4
f 21/31/4 18/38/4 10/37/4
f 18/38/4 17/16/4 9/21/4
f 4/5/4 23/33/4 22/13/4
f 2/8/4 4/5/4 22/13/4
f 8/4/4 17/16/4 20/18/4
f 19/14/4 18/38/4 21/31/4
f 8/4/4 20/18/4 19/14/4
f 23/33/4 4/5/4 24/15/4
f 4/5/4 8/4/4 24/15/4
f 19/14/4 21/31/4 24/15/4
f 17/16/3 33/39/3 36/17/3
f 12/19/3 28/24/3 25/20/3
f 20/18/2 36/17/2 35/22/2
f 27/23/4 26/36/4 25/20/4
f 37/25/4 38/34/4 39/26/4
f 36/17/4 33/39/4 34/28/4
f 29/11/4 30/32/4 31/29/4
f 22/13/6 38/34/6 37/25/6
f 15/12/5 31/29/5 30/32/5
f 23/33/5 39/26/5 38/34/5
f 16/35/2 32/30/2 31/29/2
f 24/15/2 40/27/2 39/26/2
f 13/10/3 29/11/3 32/30/3
f 9/21/2 25/20/2 26/36/2
f 21/31/3 37/25/3 40/27/3
f 18/38/6 34/28/6 33/39/6
f 10/37/5 26/36/5 27/23/5
f 19/14/5 35/22/5 34/28/5
f 11/40/6 27/23/6 28/24/6
